<svg width="107.000000" height="107.000000" viewBox="0 0 107 107" fill="none" xmlns="http://www.w3.org/2000/svg" xmlns:xlink="http://www.w3.org/1999/xlink">
	<desc>
			Created with Pixso.
	</desc>
	<defs>
		<clipPath id="clip1357_7753">
			<rect id="图层_3" width="107.000000" height="107.000000" fill="white" fill-opacity="0"/>
		</clipPath>
		<linearGradient x1="46.066696" y1="55.891270" x2="-0.940355" y2="21.416210" id="paint_linear_1357_7754_0" gradientUnits="userSpaceOnUse">
			<stop stop-color="#24C1ED"/>
			<stop offset="1.000000" stop-color="#01F8E8"/>
		</linearGradient>
		<linearGradient x1="65.934700" y1="59.847084" x2="105.694923" y2="79.731239" id="paint_linear_1357_7755_0" gradientUnits="userSpaceOnUse">
			<stop stop-color="#EB75AD"/>
			<stop offset="1.000000" stop-color="#FFB3D6"/>
		</linearGradient>
		<linearGradient x1="59.141602" y1="44.575172" x2="79.220322" y2="1.410409" id="paint_linear_1357_7756_0" gradientUnits="userSpaceOnUse">
			<stop stop-color="#BA6BD6"/>
			<stop offset="1.000000" stop-color="#D7A5F8"/>
		</linearGradient>
		<linearGradient x1="49.722591" y1="69.323036" x2="22.089025" y2="107.907875" id="paint_linear_1357_7757_0" gradientUnits="userSpaceOnUse">
			<stop stop-color="#EDBF6B"/>
			<stop offset="1.000000" stop-color="#FFF382"/>
		</linearGradient>
	</defs>
	<g opacity="0.190000">
		<g clip-path="url(#clip1357_7753)">
			<path id="path" d="M48.68 47.01L26.49 17.36L13.49 0C11.79 1.27 10.22 2.69 8.79 4.27C7.36 5.84 6.08 7.53 4.97 9.35C3.86 11.16 2.93 13.06 2.19 15.06C1.44 17.05 0.89 19.09 0.53 21.19C0.17 23.29 0.01 25.4 0.05 27.52C0.1 29.65 0.34 31.75 0.78 33.84C1.23 35.92 1.86 37.94 2.69 39.9C3.52 41.85 4.53 43.72 5.71 45.49L26.84 73.76L47.01 58.7C46.35 57.81 45.88 56.83 45.6 55.76C45.33 54.69 45.27 53.6 45.42 52.51C45.58 51.41 45.94 50.39 46.51 49.44C47.07 48.48 47.79 47.67 48.68 47.01Z" fill="url(#paint_linear_1357_7754_0)" fill-opacity="1.000000" fill-rule="nonzero"/>
			<path id="path" d="M101.71 61.87L80.54 33.59L60.39 48.68C61.05 49.57 61.52 50.55 61.79 51.62C62.07 52.7 62.12 53.78 61.97 54.88C61.81 55.98 61.45 57 60.88 57.96C60.31 58.91 59.59 59.72 58.7 60.39L93.9 107.4C95.6 106.13 97.17 104.7 98.6 103.13C100.03 101.56 101.3 99.86 102.41 98.05C103.52 96.23 104.45 94.33 105.19 92.34C105.94 90.35 106.49 88.3 106.85 86.2C107.21 84.11 107.37 82 107.33 79.87C107.28 77.74 107.04 75.64 106.59 73.56C106.15 71.48 105.51 69.46 104.69 67.5C103.86 65.54 102.89 63.64 101.71 61.87Z" fill="url(#paint_linear_1357_7755_0)" fill-opacity="1.000000" fill-rule="nonzero"/>
			<path id="path" d="M60.39 48.68L107.4 13.49C106.13 11.79 104.7 10.22 103.13 8.79C101.56 7.36 99.86 6.08 98.05 4.97C96.23 3.86 94.33 2.93 92.34 2.19C90.35 1.44 88.3 0.89 86.21 0.53C84.11 0.17 82 0.01 79.87 0.05C77.74 0.1 75.64 0.34 73.56 0.78C71.48 1.23 69.46 1.86 67.5 2.69C65.54 3.52 63.68 4.53 61.91 5.71L33.59 26.84L48.68 47.01C49.57 46.34 50.55 45.87 51.62 45.6C52.69 45.32 53.78 45.26 54.88 45.42C55.98 45.58 57 45.94 57.96 46.5C58.91 47.07 59.72 47.79 60.39 48.68Z" fill="url(#paint_linear_1357_7756_0)" fill-opacity="1.000000" fill-rule="nonzero"/>
			<path id="path" d="M47.01 58.7L26.84 73.76L17.36 80.89L0 93.9C1.27 95.6 2.69 97.17 4.27 98.6C5.84 100.03 7.53 101.3 9.35 102.41C11.16 103.52 13.07 104.45 15.06 105.19C17.05 105.94 19.09 106.49 21.19 106.85C23.29 107.21 25.4 107.37 27.53 107.33C29.65 107.28 31.76 107.04 33.84 106.59C35.92 106.15 37.94 105.51 39.9 104.69C41.85 103.86 43.72 102.85 45.49 101.67L46.91 100.6L73.76 80.54L58.7 60.39C57.81 61.05 56.83 61.52 55.76 61.79C54.69 62.06 53.6 62.12 52.51 61.96C51.41 61.8 50.39 61.44 49.43 60.88C48.48 60.31 47.67 59.59 47.01 58.7Z" fill="url(#paint_linear_1357_7757_0)" fill-opacity="1.000000" fill-rule="nonzero"/>
		</g>
	</g>
</svg>
