<svg width="98.602051" height="18.413086" viewBox="0 0 98.6021 18.4131" fill="none" xmlns="http://www.w3.org/2000/svg" xmlns:xlink="http://www.w3.org/1999/xlink">
	<desc>
			Created with Pixso.
	</desc>
	<defs/>
	<path id="Hi, 欢迎来到" d="M35.4 6.82C36.55 5.2 37.29 2.91 37.61 0L39.49 0.3C39.36 1.2 39.21 2.05 39.04 2.82L44.72 2.82L44.72 4.06C44.43 5.59 44.09 7.12 43.66 8.63L41.82 8.11C42.18 7.12 42.49 5.97 42.74 4.64L38.55 4.64C38.1 5.97 37.56 7.05 36.91 7.88L35.4 6.82ZM56.77 11.93C55.47 12.33 53.97 12.72 52.27 13.13L51.76 11.48C52.09 11.33 52.27 11.03 52.27 10.58L52.27 1.85C53.81 1.36 55.04 0.79 55.97 0.14L57.02 1.65C56.26 2.15 55.27 2.64 54.01 3.09L54.01 10.92C54.84 10.69 55.63 10.44 56.42 10.16L56.77 11.93ZM67.06 5.12L68.72 4.33C69.26 5.22 69.8 6.2 70.32 7.29L69.04 7.93L71.92 7.93L71.92 3.99L65.66 3.99L65.66 2.17L71.92 2.17L71.92 0.3L73.83 0.3L73.83 2.17L80.25 2.17L80.25 3.99L73.83 3.99L73.83 7.93L75.27 7.93C75.88 6.76 76.4 5.52 76.85 4.2L78.69 4.86C78.22 5.99 77.7 7.01 77.13 7.93L80.76 7.93L80.76 9.75L75.27 9.75C76.53 11.57 78.56 13.21 81.37 14.65L80.07 16.27C77.16 14.36 75.07 12.23 73.83 9.91L73.83 16.88L71.92 16.88L71.92 9.9C70.75 12.38 68.59 14.5 65.42 16.29L64.38 14.59C67.33 13.13 69.36 11.51 70.45 9.75L64.96 9.75L64.96 7.93L68.64 7.93C68.14 6.87 67.62 5.94 67.06 5.12ZM98.6 14.84C98.6 16.11 97.97 16.73 96.71 16.73L94.03 16.73L93.61 14.91C94.47 14.99 95.29 15.02 96.06 15.02C96.47 15.02 96.69 14.79 96.69 14.36L96.69 0.3L98.6 0.3L98.6 14.84ZM47.01 1.58L48.27 0.39C49.47 1.33 50.5 2.28 51.35 3.23L50.05 4.53C49.33 3.63 48.32 2.64 47.01 1.58ZM82.96 2.61L82.96 0.84L92.04 0.84L92.04 2.61L87.56 2.61C86.84 4.06 86.2 5.2 85.62 5.99C86.92 5.84 88.21 5.68 89.51 5.47C89.18 4.96 88.84 4.44 88.48 3.92L89.92 3C91.11 4.57 92.01 5.94 92.64 7.09L91.07 8.16C90.86 7.73 90.63 7.3 90.37 6.87C88.12 7.27 85.67 7.59 83.04 7.86L82.63 6.19C82.96 6.15 83.19 6.08 83.37 6.01C83.88 5.59 84.61 4.46 85.55 2.61L82.96 2.61ZM62.63 10.63C62.63 11.89 62.07 12.52 60.98 12.52L59.64 12.52L59.14 10.74L60.38 10.83C60.71 10.83 60.87 10.63 60.87 10.26L60.87 2.84L58.96 2.84L58.96 14.45L57.16 14.45L57.16 1.18L62.63 1.18L62.63 10.63ZM13.46 2.3C13.73 2.05 14.05 1.92 14.45 1.92C14.84 1.92 15.19 2.05 15.46 2.3C15.71 2.55 15.85 2.87 15.85 3.27C15.85 3.66 15.71 4.01 15.44 4.26C15.17 4.51 14.84 4.64 14.45 4.64C14.05 4.64 13.73 4.51 13.46 4.26C13.19 3.99 13.06 3.66 13.06 3.27C13.06 2.87 13.19 2.55 13.46 2.3ZM93.24 12.92L93.24 1.92L95.05 1.92L95.05 12.92L93.24 12.92ZM36.07 12.72L34.7 14.11C34.16 13.28 33.62 12.47 33.06 11.68C32.05 13.62 30.85 15.17 29.42 16.32L28.49 14.63C29.91 13.58 31.06 12.09 31.95 10.15C30.93 8.83 29.89 7.55 28.78 6.29L30.02 5.11C30.83 5.91 31.73 6.94 32.7 8.16C33.1 6.87 33.42 5.47 33.67 3.94L28.81 3.94L28.81 2.12L35.51 2.12L35.51 3.84C35.11 6.04 34.57 8.01 33.92 9.73C34.61 10.65 35.31 11.64 36.07 12.72ZM0 15.02L0 2.17L2.1 2.17L2.1 7.54L8.62 7.54L8.62 2.17L10.72 2.17L10.72 15.02L8.62 15.02L8.62 9.34L2.1 9.34L2.1 15.02L0 15.02ZM38.53 11.19C39 9.75 39.25 7.9 39.27 5.63L41.13 5.63C41.13 6.87 41.05 8.01 40.91 9.05C41.77 11.71 43.23 13.86 45.32 15.46L44.06 16.93C42.44 15.51 41.2 13.8 40.29 11.8C39.65 13.87 38.15 15.58 35.83 16.93L34.64 15.47C36.63 14.29 37.92 12.86 38.53 11.19ZM13.42 15.02L13.42 5.72L15.48 5.72L15.48 15.02L13.42 15.02ZM62.87 16.59L59.03 16.59C58.01 16.59 56.89 16.57 55.68 16.55C54.46 16.54 53.45 16.43 52.68 16.23C51.91 16.01 51.26 15.6 50.72 14.99C50.46 14.66 50.21 14.52 50 14.52C49.64 14.52 48.99 15.37 48.06 17.08L46.72 15.82C47.62 14.34 48.43 13.39 49.19 12.99L49.19 8.01L46.76 8.01L46.76 6.31L50.9 6.31L50.9 13.12C50.97 13.19 51.06 13.26 51.15 13.37C51.6 13.86 52.03 14.22 52.46 14.45C53.02 14.7 53.85 14.86 54.96 14.9C56.04 14.91 57.32 14.94 58.8 14.94C59.63 14.94 60.46 14.91 61.32 14.9C62.18 14.86 62.83 14.84 63.3 14.81L62.87 16.59ZM88.63 14.05C89.81 13.84 90.96 13.58 92.12 13.33L92.12 15.2C89.31 15.78 86.31 16.29 83.1 16.68L82.65 14.88C84.04 14.73 85.4 14.58 86.74 14.38L86.74 11.57L83.48 11.57L83.48 9.77L86.74 9.77L86.74 7.95L88.63 7.95L88.63 9.77L91.6 9.77L91.6 11.57L88.63 11.57L88.63 14.05ZM18.33 12.7C18.61 12.43 18.97 12.31 19.41 12.31C19.9 12.31 20.32 12.51 20.64 12.9C20.94 13.3 21.11 13.82 21.11 14.45C21.11 15.4 20.82 16.23 20.28 16.95C19.72 17.65 18.97 18.14 18.03 18.41L18.03 17.22C18.51 17.04 18.93 16.75 19.27 16.36C19.59 15.93 19.74 15.51 19.74 15.08C19.63 15.11 19.49 15.15 19.29 15.15C18.89 15.15 18.57 15.01 18.3 14.73C18.03 14.47 17.9 14.12 17.9 13.73C17.9 13.3 18.05 12.95 18.33 12.7Z" fill="#333333" fill-opacity="1.000000" fill-rule="evenodd"/>
</svg>
