<svg width="18.000000" height="18.000000" viewBox="0 0 18 18" fill="none" xmlns="http://www.w3.org/2000/svg" xmlns:xlink="http://www.w3.org/1999/xlink">
	<desc>
			Created with Pixso.
	</desc>
	<defs/>
	<rect id="待办完成" width="18.000000" height="18.000000" fill="#FFFFFF" fill-opacity="0"/>
	<rect id="矩形 32" x="0.500000" y="0.500000" rx="6.000000" width="17.000000" height="17.000000" stroke="#B381D9" stroke-opacity="1.000000" stroke-width="1.000000"/>
	<path id="path" d="M13 6.15C13.02 6.18 13.05 6.21 13.07 6.24C13.09 6.27 13.11 6.3 13.12 6.34C13.14 6.37 13.15 6.41 13.16 6.44C13.17 6.48 13.17 6.52 13.17 6.55C13.17 6.59 13.17 6.63 13.17 6.66C13.16 6.7 13.15 6.74 13.14 6.77C13.12 6.81 13.11 6.84 13.09 6.87C13.07 6.9 13.04 6.93 13.02 6.96L8.34 11.85C8.33 11.86 8.33 11.86 8.33 11.86L8.32 11.87C8.29 11.9 8.25 11.92 8.21 11.94C8.18 11.96 8.16 11.98 8.14 11.99C8.07 12.02 8 12.03 7.92 12.03C7.85 12.03 7.78 12.02 7.71 11.99C7.69 11.98 7.67 11.96 7.65 11.95C7.61 11.93 7.57 11.91 7.53 11.87C7.53 11.87 7.52 11.87 7.52 11.86C7.52 11.86 7.51 11.86 7.51 11.86L5.16 9.41C5.13 9.38 5.11 9.35 5.09 9.32C5.07 9.29 5.05 9.26 5.03 9.22C5.02 9.19 5.01 9.15 5 9.11C5 9.08 4.99 9.04 5 9C5 8.97 5 8.93 5.01 8.89C5.02 8.86 5.03 8.82 5.04 8.79C5.06 8.75 5.08 8.72 5.1 8.69C5.12 8.66 5.14 8.63 5.17 8.6C5.2 8.58 5.23 8.55 5.26 8.53C5.29 8.51 5.32 8.5 5.36 8.48C5.39 8.47 5.43 8.46 5.47 8.45C5.5 8.44 5.54 8.44 5.58 8.44C5.61 8.44 5.65 8.45 5.69 8.45C5.72 8.46 5.76 8.47 5.79 8.49C5.83 8.5 5.86 8.52 5.89 8.54C5.92 8.57 5.95 8.59 5.98 8.62L7.92 10.63L12.19 6.17C12.21 6.14 12.24 6.12 12.27 6.1C12.3 6.08 12.34 6.06 12.37 6.04C12.41 6.03 12.44 6.02 12.48 6.01C12.51 6 12.55 6 12.59 6C12.63 5.99 12.66 6 12.7 6C12.74 6.01 12.77 6.02 12.81 6.03C12.84 6.05 12.88 6.06 12.91 6.08C12.94 6.1 12.97 6.13 13 6.15Z" fill="#B381D9" fill-opacity="1.000000" fill-rule="nonzero"/>
</svg>
