<svg width="127.732422" height="29.000000" viewBox="0 0 127.732 29" fill="none" xmlns="http://www.w3.org/2000/svg" xmlns:xlink="http://www.w3.org/1999/xlink">
	<desc>
			Created with Pixso.
	</desc>
	<defs>
		<clipPath id="clip1357_7909">
			<rect id="风车记课" width="127.732323" height="29.000000" fill="white" fill-opacity="0"/>
		</clipPath>
	</defs>
	<g clip-path="url(#clip1357_7909)">
		<path id="path" d="M29.12 23.6C29.08 23.59 29.04 23.59 29 23.6C27.93 24.08 26.83 24.45 25.69 24.71C25.59 24.72 25.5 24.72 25.4 24.71C25.4 24.71 25.36 24.64 25.36 24.47L27.36 4.55C27.36 4.1 27.43 3.81 27.43 3.67C27.49 2.88 27.25 2.2 26.71 1.63C26.06 1.13 25.33 0.91 24.51 0.98L8.01 0.98C7.21 0.89 6.51 1.1 5.9 1.62C5.29 2.14 4.96 2.8 4.92 3.6L4.47 7.35L4.27 8.82C3.82 12.84 3.37 15.97 2.94 18.13C2.34 21.36 1.36 24.46 0 27.44C-0.05 27.53 -0.05 27.62 0 27.7C0.04 27.79 0.11 27.85 0.19 27.88L3.5 28.88C3.64 28.87 3.82 28.79 3.87 28.66C5.12 25.57 6.06 22.38 6.69 19.1C7.38 15.63 7.96 11.68 8.39 7.39L8.39 7.23C10.15 10.04 11.69 12.58 12.97 14.77C10.98 17.38 8.86 19.88 6.61 22.27C6.54 22.35 6.51 22.44 6.53 22.54C6.56 22.65 6.62 22.73 6.72 22.78L9.85 24.08C9.89 24.09 9.93 24.09 9.97 24.08C10.07 24.08 10.14 24.04 10.21 23.98C11.88 22.16 13.51 20.25 15.02 18.3L17.97 23.66C18.03 23.76 18.11 23.81 18.23 23.81L21.53 22.76L21.29 25.65C21.1 26.52 21.3 27.29 21.9 27.95C22.45 28.42 23.07 28.63 23.79 28.6L24.13 28.6C25.75 28.49 27.32 28.18 28.85 27.67C28.98 27.63 29.05 27.54 29.06 27.41L29.46 23.98C29.47 23.86 29.43 23.76 29.34 23.69C29.28 23.63 29.2 23.6 29.12 23.6ZM17.44 15.06C19.16 12.71 20.96 10 22.79 7C22.85 6.89 22.84 6.79 22.78 6.68C22.72 6.58 22.63 6.52 22.51 6.52L18.83 6.52C18.71 6.52 18.63 6.57 18.56 6.67C17.23 8.75 16.15 10.39 15.34 11.56L14.55 10.27C13.66 8.82 12.94 7.65 12.4 6.78C12.34 6.67 12.25 6.61 12.12 6.61L8.5 6.61L8.75 4.65L23.42 4.65L21.61 22.21C20.8 20.76 19.4 18.35 17.44 15.06Z" fill="#333333" fill-opacity="1.000000" fill-rule="nonzero"/>
		<path id="path" d="M45.2 7.36L45.48 6.92L60.7 6.92C60.9 6.91 61 6.81 61.01 6.61L61.34 3.55C61.34 3.45 61.31 3.37 61.25 3.3C61.19 3.23 61.11 3.19 61.02 3.19L47.61 3.19L48.26 2.03L48.62 1.41L49.17 0.43C49.23 0.32 49.23 0.22 49.17 0.12C49.11 0.03 49.02 -0.01 48.91 0L45.12 0C44.99 -0.01 44.9 0.05 44.84 0.16C44.34 1.12 43.74 2.13 43.16 3.23L36.55 3.23C36.37 3.23 36.26 3.32 36.24 3.5L35.89 6.61C35.88 6.7 35.9 6.78 35.96 6.85C36.03 6.92 36.1 6.95 36.2 6.95L40.94 6.95C40.01 8.42 38.91 10.12 37.63 12.04C37.31 12.53 37.13 13.08 37.1 13.67C37.1 13.99 37.16 14.29 37.29 14.58C37.48 14.97 37.78 15.26 38.18 15.44C38.63 15.66 39.1 15.75 39.59 15.74L46.44 15.74L46.17 18.74L34.5 18.74C34.32 18.74 34.21 18.84 34.19 19.02L33.84 22.05C33.82 22.14 33.85 22.22 33.91 22.29C33.97 22.36 34.05 22.39 34.14 22.39L45.78 22.39L45.2 28.59C45.2 28.68 45.23 28.76 45.29 28.83C45.35 28.9 45.43 28.94 45.52 28.94L48.83 28.94C49.01 28.93 49.12 28.83 49.14 28.65L49.76 22.4L60.64 22.4C60.82 22.4 60.93 22.3 60.95 22.13L61.31 19.09C61.32 19 61.3 18.92 61.24 18.85C61.17 18.78 61.09 18.74 60.99 18.74L50.17 18.74L50.46 15.71L58.6 15.71C58.78 15.71 58.88 15.62 58.91 15.44L59.37 12.4C59.39 12.31 59.36 12.23 59.3 12.16C59.24 12.09 59.16 12.05 59.06 12.05L50.85 12.05L51.24 8.34C51.25 8.25 51.22 8.17 51.16 8.1C51.1 8.03 51.02 8 50.93 8L47.62 8C47.43 8 47.33 8.09 47.31 8.28L46.91 12.05L42.26 12.05L43.75 9.72C44.25 8.96 44.74 8.17 45.2 7.36Z" fill="#333333" fill-opacity="1.000000" fill-rule="nonzero"/>
		<path id="path" d="M69.1 4.22L75.99 6.93C76.03 6.94 76.07 6.94 76.11 6.93C76.16 6.95 76.21 6.95 76.27 6.93C76.35 6.88 76.41 6.81 76.42 6.71L76.87 3.51C76.9 3.35 76.84 3.24 76.68 3.17L69.76 0.44L69.64 0.44C69.59 0.42 69.54 0.42 69.48 0.44C69.39 0.49 69.34 0.56 69.33 0.67L68.91 3.87C68.87 4.04 68.93 4.16 69.1 4.22Z" fill="#333333" fill-opacity="1.000000" fill-rule="nonzero"/>
		<path id="path" d="M81.95 14.76L92.18 14.76C92.36 14.76 92.47 14.67 92.49 14.48L93.72 4.96C93.76 4.69 93.78 4.43 93.79 4.16C93.83 3.39 93.58 2.74 93.02 2.2C92.31 1.7 91.54 1.48 90.68 1.55L79.18 1.55C79 1.55 78.89 1.65 78.87 1.83L78.54 4.64C78.53 4.73 78.55 4.81 78.62 4.88C78.68 4.95 78.75 4.99 78.85 4.99L89.87 4.99L89.1 11.39L81.38 11.39C80.53 11.31 79.77 11.54 79.1 12.08C78.54 12.73 78.25 13.48 78.22 14.33L77.12 24.86C77.1 25.06 77.1 25.26 77.12 25.47C77.12 26.69 77.62 28.16 80.07 28.16L85.58 28.16C88.18 28.19 90.71 27.82 93.19 27.05C93.32 27.01 93.39 26.93 93.4 26.79L93.77 23.48C93.78 23.25 93.67 23.14 93.45 23.14C91.05 24.07 88.47 24.56 85.9 24.62L81.17 24.62C80.96 24.62 80.9 24.62 80.9 24.51C80.89 24.43 80.89 24.35 80.9 24.28L81.95 14.76Z" fill="#333333" fill-opacity="1.000000" fill-rule="nonzero"/>
		<path id="path" d="M76.33 19.94L76.21 19.94C76.14 19.94 76.08 19.96 76.02 20C75.23 20.57 74.54 21.04 73.95 21.41L72.85 22.05L74.28 10.72C74.4 10.09 74.28 9.51 73.92 8.98C73.49 8.44 72.93 8.19 72.24 8.24L67.36 8.24C67.17 8.24 67.07 8.33 67.05 8.52L66.68 11.6C66.67 11.69 66.7 11.77 66.76 11.84C66.82 11.9 66.9 11.94 66.99 11.94L70.4 11.94L68.98 23.69C68.67 24.83 68.99 25.76 69.94 26.46C70.28 26.66 70.64 26.76 71.04 26.73C71.72 26.7 72.36 26.52 72.95 26.17C74.05 25.59 75.33 24.82 76.78 23.88C76.9 23.81 76.95 23.71 76.93 23.58L76.54 20.22C76.53 20.08 76.46 19.99 76.33 19.94Z" fill="#333333" fill-opacity="1.000000" fill-rule="nonzero"/>
		<path id="path" d="M101.23 4.28L107.31 6.93L107.43 6.93C107.48 6.94 107.53 6.94 107.58 6.93C107.67 6.88 107.72 6.8 107.74 6.7L108.2 3.63C108.23 3.49 108.18 3.38 108.06 3.3L101.9 0.65C101.81 0.59 101.72 0.59 101.63 0.65C101.51 0.69 101.45 0.77 101.44 0.89L101.01 3.95C100.99 4.13 101.06 4.24 101.23 4.28Z" fill="#333333" fill-opacity="1.000000" fill-rule="nonzero"/>
		<path id="path" d="M127.58 25.78C124.55 23.96 121.92 21.68 119.69 18.94L126.72 18.94C126.92 18.95 127.02 18.85 127.04 18.66L127.36 15.95C127.38 15.86 127.35 15.78 127.29 15.71C127.22 15.64 127.15 15.61 127.06 15.61L118.95 15.61L119.1 14.18L125.59 14.18C125.77 14.17 125.87 14.08 125.9 13.9L127 4.36C127.04 3.99 127.07 3.75 127.07 3.63C127.07 2.53 126.59 1.3 124.36 1.3L112.85 1.3C112.11 1.25 111.44 1.45 110.85 1.9C110.33 2.41 110.05 3.02 110 3.73L108.75 13.82C108.74 13.91 108.77 14 108.83 14.06C108.89 14.14 108.97 14.17 109.06 14.18L115.53 14.18L115.38 15.61L108.06 15.61C107.87 15.61 107.77 15.7 107.75 15.88L107.43 18.6C107.41 18.69 107.44 18.77 107.5 18.84C107.57 18.91 107.64 18.94 107.74 18.94L113.7 18.94C111.28 21.52 108.52 23.66 105.41 25.36C105.31 25.41 105.26 25.5 105.26 25.61C105.24 25.73 105.29 25.82 105.39 25.89L107.8 27.56C107.86 27.6 107.92 27.61 107.98 27.62C108.04 27.63 108.1 27.63 108.16 27.62C110.47 26.19 112.6 24.53 114.56 22.65L113.88 28.72C113.87 28.81 113.89 28.89 113.96 28.96C114.02 29.03 114.09 29.06 114.19 29.06L117.13 29.06C117.32 29.06 117.42 28.97 117.44 28.79L118.2 22.05C120.11 24.35 122.28 26.36 124.72 28.09C124.77 28.13 124.84 28.15 124.91 28.15C124.97 28.15 125.03 28.13 125.08 28.09L127.6 26.29C127.69 26.23 127.73 26.14 127.73 26.03C127.73 25.92 127.68 25.83 127.58 25.78ZM116.13 9.24L115.91 11.12L112.6 11.12L112.82 9.24L116.13 9.24ZM113.14 6.22L113.36 4.39L116.67 4.39L116.45 6.22L113.14 6.22ZM120.03 6.22L120.25 4.39L123.49 4.39L123.27 6.22L120.03 6.22ZM119.47 11.12L119.69 9.24L122.85 9.24L122.63 11.12L119.47 11.12Z" fill="#333333" fill-opacity="1.000000" fill-rule="nonzero"/>
		<path id="path" d="M108.2 22.89L107.97 19.58C107.96 19.46 107.9 19.37 107.79 19.31C107.75 19.3 107.7 19.3 107.66 19.31C107.6 19.31 107.54 19.33 107.48 19.37L106.73 19.84C105.94 20.36 105.3 20.78 104.77 21.08L106.2 10.62C106.32 9.99 106.2 9.41 105.85 8.87C105.43 8.35 104.89 8.11 104.22 8.15L99.65 8.15C99.47 8.16 99.36 8.26 99.35 8.44L99.01 11.37C99 11.47 99.03 11.55 99.09 11.62C99.16 11.69 99.24 11.73 99.33 11.73L102.4 11.73L100.98 22.47C100.96 22.71 100.96 22.96 100.98 23.21C100.86 24.09 101.16 24.81 101.87 25.36C102.21 25.56 102.58 25.65 102.97 25.63C103.66 25.6 104.3 25.41 104.89 25.08C106.24 24.34 107.31 23.69 108.09 23.16C108.18 23.09 108.22 23 108.2 22.89Z" fill="#333333" fill-opacity="1.000000" fill-rule="nonzero"/>
	</g>
</svg>
