<svg width="24.000000" height="24.000000" viewBox="0 0 24 24" fill="none" xmlns="http://www.w3.org/2000/svg" xmlns:xlink="http://www.w3.org/1999/xlink">
	<desc>
			Created with Pixso.
	</desc>
	<defs>
		<clipPath id="clip3_83">
			<rect id="属性 1=灰色" width="24.000000" height="24.000000" fill="white" fill-opacity="0"/>
		</clipPath>
	</defs>
	<g clip-path="url(#clip3_83)">
		<path id="path" d="M3.76 8.92L20.69 8.92L20.69 10.46L3.76 10.46L3.76 8.92Z" fill="#AAB0B2" fill-opacity="1.000000" fill-rule="nonzero"/>
		<path id="path" d="M4.53 5.84L4.53 19.69C4.53 20.11 4.88 20.46 5.3 20.46L19.15 20.46C19.2 20.46 19.25 20.45 19.3 20.44C19.35 20.43 19.4 20.42 19.44 20.4C19.49 20.38 19.53 20.35 19.58 20.33C19.62 20.3 19.66 20.27 19.69 20.23C19.73 20.2 19.76 20.16 19.79 20.11C19.82 20.07 19.84 20.03 19.86 19.98C19.88 19.93 19.89 19.89 19.9 19.84C19.91 19.79 19.92 19.74 19.92 19.69L19.92 5.84C19.92 5.79 19.91 5.74 19.9 5.69C19.89 5.64 19.88 5.59 19.86 5.55C19.84 5.5 19.82 5.46 19.79 5.41C19.76 5.37 19.73 5.33 19.69 5.3C19.66 5.26 19.62 5.23 19.58 5.2C19.53 5.17 19.49 5.15 19.44 5.13C19.4 5.11 19.35 5.1 19.3 5.09C19.25 5.08 19.2 5.07 19.15 5.07L5.3 5.07C5.25 5.07 5.2 5.08 5.15 5.09C5.1 5.1 5.06 5.11 5.01 5.13C4.96 5.15 4.92 5.17 4.88 5.2C4.83 5.23 4.79 5.26 4.76 5.3C4.72 5.33 4.69 5.37 4.66 5.41C4.64 5.46 4.61 5.5 4.59 5.55C4.57 5.59 4.56 5.64 4.55 5.69C4.54 5.74 4.53 5.79 4.53 5.84ZM3 5.84C3 5.77 3 5.69 3.01 5.62C3.01 5.54 3.02 5.47 3.04 5.39C3.05 5.32 3.07 5.24 3.09 5.17C3.12 5.1 3.14 5.03 3.17 4.96C3.2 4.89 3.23 4.82 3.27 4.75C3.3 4.69 3.34 4.62 3.38 4.56C3.43 4.5 3.47 4.44 3.52 4.38C3.57 4.32 3.62 4.26 3.67 4.21C3.72 4.16 3.78 4.11 3.84 4.06C3.9 4.01 3.96 3.96 4.02 3.92C4.08 3.88 4.15 3.84 4.22 3.81C4.28 3.77 4.35 3.74 4.42 3.71C4.49 3.68 4.56 3.65 4.63 3.63C4.71 3.61 4.78 3.59 4.85 3.58C4.93 3.56 5 3.55 5.08 3.54C5.15 3.54 5.23 3.53 5.3 3.53L19.15 3.53C19.22 3.53 19.3 3.54 19.37 3.54C19.45 3.55 19.52 3.56 19.6 3.58C19.67 3.59 19.75 3.61 19.82 3.63C19.89 3.65 19.96 3.68 20.03 3.71C20.1 3.74 20.17 3.77 20.24 3.81C20.3 3.84 20.37 3.88 20.43 3.92C20.49 3.96 20.55 4.01 20.61 4.06C20.67 4.11 20.73 4.16 20.78 4.21C20.83 4.26 20.88 4.32 20.93 4.38C20.98 4.44 21.03 4.5 21.07 4.56C21.11 4.62 21.15 4.69 21.18 4.75C21.22 4.82 21.25 4.89 21.28 4.96C21.31 5.03 21.34 5.1 21.36 5.17C21.38 5.24 21.4 5.32 21.41 5.39C21.43 5.47 21.44 5.54 21.45 5.62C21.45 5.69 21.46 5.77 21.46 5.84L21.46 19.69C21.46 19.76 21.45 19.84 21.45 19.91C21.44 19.99 21.43 20.06 21.41 20.14C21.4 20.21 21.38 20.28 21.36 20.36C21.34 20.43 21.31 20.5 21.28 20.57C21.25 20.64 21.22 20.71 21.18 20.77C21.15 20.84 21.11 20.91 21.07 20.97C21.03 21.03 20.98 21.09 20.93 21.15C20.88 21.21 20.83 21.27 20.78 21.32C20.73 21.37 20.67 21.42 20.61 21.47C20.55 21.52 20.49 21.56 20.43 21.61C20.37 21.65 20.3 21.69 20.24 21.72C20.17 21.76 20.1 21.79 20.03 21.82C19.96 21.85 19.89 21.87 19.82 21.9C19.75 21.92 19.67 21.94 19.6 21.95C19.52 21.97 19.45 21.98 19.37 21.98C19.3 21.99 19.22 22 19.15 22L5.3 22C5.23 21.99 5.15 21.99 5.08 21.98C5 21.98 4.93 21.97 4.85 21.95C4.78 21.94 4.71 21.92 4.63 21.9C4.56 21.87 4.49 21.85 4.42 21.82C4.35 21.79 4.28 21.76 4.22 21.72C4.15 21.69 4.08 21.65 4.02 21.61C3.96 21.56 3.9 21.52 3.84 21.47C3.78 21.42 3.72 21.37 3.67 21.32C3.62 21.27 3.57 21.21 3.52 21.15C3.47 21.09 3.43 21.03 3.38 20.97C3.34 20.91 3.3 20.84 3.27 20.77C3.23 20.71 3.2 20.64 3.17 20.57C3.14 20.5 3.12 20.43 3.09 20.36C3.07 20.28 3.05 20.21 3.04 20.14C3.02 20.06 3.01 19.99 3.01 19.91C3 19.84 3 19.76 3 19.69L3 5.84Z" fill="#AAB0B2" fill-opacity="1.000000" fill-rule="nonzero"/>
		<path id="path" d="M8.38 5.84L8.38 2.76C8.38 2.25 8.64 2 9.15 2C9.66 2 9.92 2.25 9.92 2.76L9.92 5.84C9.92 6.35 9.66 6.61 9.15 6.61C8.64 6.61 8.38 6.35 8.38 5.84Z" fill="#AAB0B2" fill-opacity="1.000000" fill-rule="nonzero"/>
		<path id="path" d="M14.53 5.84L14.53 2.76C14.53 2.25 14.79 2 15.3 2C15.82 2 16.07 2.25 16.07 2.76L16.07 5.84C16.07 6.35 15.82 6.61 15.3 6.61C14.79 6.61 14.53 6.35 14.53 5.84Z" fill="#AAB0B2" fill-opacity="1.000000" fill-rule="nonzero"/>
		<path id="矢量 13 (边框)" d="M16.34 13.25L12.01 17.58C11.87 17.73 11.71 17.81 11.56 17.82C11.4 17.83 11.24 17.77 11.07 17.65L8.19 15.48C7.86 15.24 7.8 14.8 8.04 14.47C8.29 14.15 8.73 14.09 9.05 14.33L11.44 16.12L15.32 12.23C15.61 11.95 16.06 11.95 16.34 12.23C16.63 12.52 16.63 12.97 16.34 13.25Z" fill="#AAB0B2" fill-opacity="1.000000" fill-rule="evenodd"/>
	</g>
</svg>
