<svg width="24.000000" height="24.000000" viewBox="0 0 24 24" fill="none" xmlns="http://www.w3.org/2000/svg" xmlns:xlink="http://www.w3.org/1999/xlink">
	<desc>
			Created with Pixso.
	</desc>
	<defs>
		<clipPath id="clip3_94">
			<rect id="属性 1=灰色" width="24.000000" height="24.000000" fill="white" fill-opacity="0"/>
		</clipPath>
	</defs>
	<g clip-path="url(#clip3_94)">
		<path id="path" d="M18.19 6.41L6.03 6.41C5.65 6.41 5.34 6.09 5.34 5.7C5.34 5.31 5.65 5 6.03 5L18.19 5C18.57 5 18.88 5.31 18.88 5.7C18.88 6.09 18.57 6.41 18.19 6.41ZM9.13 16.21C6.85 16.21 5 14.3 5 11.96C5 9.62 6.85 7.71 9.13 7.71C9.51 7.71 9.81 8.03 9.81 8.42L9.81 11.25L12.57 11.25C12.95 11.25 13.26 11.57 13.26 11.96C13.26 14.3 11.4 16.21 9.13 16.21ZM8.44 9.22C7.25 9.53 6.37 10.64 6.37 11.96C6.37 13.52 7.61 14.79 9.13 14.79C10.41 14.79 11.49 13.89 11.79 12.67L9.13 12.67C8.75 12.67 8.44 12.35 8.44 11.96L8.44 9.22ZM18.31 10.9L14.86 10.9C14.48 10.9 14.18 10.58 14.18 10.19C14.18 9.8 14.48 9.48 14.86 9.48L18.31 9.48C18.69 9.48 19 9.8 19 10.19C19 10.58 18.69 10.9 18.31 10.9ZM18.31 14.44L14.86 14.44C14.48 14.44 14.18 14.12 14.18 13.73C14.18 13.34 14.48 13.02 14.86 13.02L18.31 13.02C18.69 13.02 19 13.34 19 13.73C19 14.12 18.69 14.44 18.31 14.44ZM7.5 22C7.37 22 7.23 21.96 7.12 21.88C7.08 21.85 7.04 21.82 7.01 21.79C6.98 21.76 6.95 21.72 6.92 21.68C6.9 21.64 6.88 21.6 6.86 21.56C6.84 21.52 6.83 21.47 6.82 21.43C6.81 21.38 6.81 21.33 6.81 21.29C6.81 21.24 6.81 21.19 6.82 21.15C6.83 21.1 6.84 21.06 6.86 21.02C6.88 20.97 6.9 20.93 6.92 20.89L8.64 18.24C8.85 17.91 9.28 17.83 9.6 18.04C9.63 18.07 9.67 18.1 9.7 18.13C9.73 18.16 9.76 18.2 9.79 18.24C9.81 18.28 9.83 18.32 9.85 18.36C9.87 18.4 9.88 18.45 9.89 18.49C9.9 18.54 9.9 18.58 9.9 18.63C9.9 18.68 9.9 18.72 9.89 18.77C9.88 18.81 9.87 18.86 9.85 18.9C9.83 18.94 9.81 18.98 9.79 19.02L8.07 21.68C8.01 21.78 7.92 21.85 7.82 21.91C7.72 21.97 7.61 22 7.5 22ZM16.92 22C16.69 22 16.47 21.88 16.34 21.68L14.62 19.02C14.6 18.98 14.58 18.94 14.56 18.9C14.54 18.86 14.53 18.81 14.52 18.77C14.51 18.72 14.51 18.68 14.51 18.63C14.51 18.58 14.51 18.54 14.52 18.49C14.53 18.45 14.54 18.4 14.56 18.36C14.58 18.32 14.6 18.28 14.62 18.24C14.65 18.2 14.68 18.16 14.71 18.13C14.74 18.1 14.78 18.07 14.82 18.04C14.85 18.02 14.89 17.99 14.93 17.98C14.98 17.96 15.02 17.94 15.06 17.94C15.11 17.93 15.15 17.92 15.2 17.92C15.24 17.92 15.29 17.93 15.33 17.94C15.38 17.95 15.42 17.96 15.46 17.98C15.5 17.99 15.54 18.02 15.58 18.04C15.62 18.07 15.65 18.1 15.68 18.13C15.72 18.16 15.74 18.2 15.77 18.24L17.49 20.89C17.51 20.93 17.53 20.97 17.55 21.02C17.57 21.06 17.58 21.1 17.59 21.15C17.6 21.19 17.6 21.24 17.6 21.29C17.6 21.33 17.6 21.38 17.59 21.43C17.58 21.47 17.57 21.52 17.55 21.56C17.53 21.6 17.51 21.64 17.49 21.68C17.46 21.72 17.43 21.76 17.4 21.79C17.37 21.82 17.33 21.85 17.3 21.88C17.18 21.96 17.05 22 16.92 22Z" fill="#AAB0B2" fill-opacity="1.000000" fill-rule="nonzero"/>
		<path id="path" d="M18.97 19L5.02 19C3.35 19 2 17.66 2 16.01L2 4.98C2 3.33 3.35 2 5.02 2L18.97 2C20.64 2 22 3.33 22 4.98L22 16.01C22 17.66 20.64 19 18.97 19ZM5.02 3.37C4.12 3.37 3.39 4.09 3.39 4.98L3.39 16.01C3.39 16.9 4.12 17.62 5.02 17.62L18.97 17.62C19.87 17.62 20.6 16.9 20.6 16.01L20.6 4.98C20.6 4.09 19.87 3.37 18.97 3.37L5.02 3.37Z" fill="#AAB0B2" fill-opacity="1.000000" fill-rule="nonzero"/>
	</g>
</svg>
