<svg width="24.000000" height="24.000000" viewBox="0 0 24 24" fill="none" xmlns="http://www.w3.org/2000/svg" xmlns:xlink="http://www.w3.org/1999/xlink">
	<desc>
			Created with Pixso.
	</desc>
	<defs>
		<clipPath id="clip3_98">
			<rect id="属性 1=点击态" width="24.000000" height="24.000000" fill="white" fill-opacity="0"/>
		</clipPath>
	</defs>
	<g clip-path="url(#clip3_98)">
		<path id="path" d="M12 13.2C9.1 13.2 6.7 10.8 6.7 7.89C6.7 5 9.1 2.59 12 2.59C14.9 2.59 17.29 5 17.29 7.89C17.29 10.8 14.9 13.2 12 13.2ZM12 4.09C9.89 4.09 8.2 5.79 8.2 7.89C8.2 10 9.89 11.7 12 11.7C14.1 11.7 15.8 10 15.8 7.89C15.8 5.79 14.1 4.09 12 4.09ZM17.9 21.4L6.1 21.4C4.1 21.4 2.5 19.79 2.5 17.79C2.5 15.8 4.1 14.2 6.1 14.2L18 14.2C20 14.2 21.6 15.8 21.6 17.79C21.6 19.79 19.9 21.4 17.9 21.4ZM6.1 15.7C4.9 15.7 4 16.6 4 17.79C4 19 4.9 19.9 6.1 19.9L18 19.9C19.2 19.9 20.1 19 20.1 17.79C20.1 16.6 19.2 15.7 18 15.7L6.1 15.7Z" fill="#00C8C2" fill-opacity="1.000000" fill-rule="nonzero"/>
	</g>
</svg>
